<svg xmlns="http://www.w3.org/2000/svg" width="276" height="36" fill="#fff" fill-rule="nonzero"><path d="M242.53 30.927c0-.5-.33-.818-.824-.818h-14.344c-.495 0-.824.327-.824.818s.33.818.824.818h14.344c.495 0 .824-.4.824-.818zM230.66 34.2H229c-.495 0-.824.327-.824.818s.33.818.824.818h1.65c.495 0 .824-.327.824-.818s-.33-.818-.824-.818zm3.875-7.364c0-.5-.33-.818-.824-.818h-7.996c-.495 0-.824.327-.824.818s.33.818.824.818h7.996c.495 0 .824-.4.824-.818zm40.97 1.39c-.247-.5-.742-.9-1.237-1.145l-6.265-2.373-2.555-.9c-.742-.327-1.4-.818-1.814-1.473l-2.143-3.518c.412-.082.66-.4.66-.818 0-.5-.33-.818-.824-.818h-.824l-1-1.636c.412-.082.66-.4.66-.818 0-.5-.33-.818-.824-.818h-.824l-.824-1.3a.79.79 0 0 0 .577-.736c0-.5-.33-.818-.824-.818h-.742l-1.072-1.718s0-.082-.082-.082c-1-1.145-2.308-1.718-3.7-1.555-1.237.164-2.226.9-2.638 1.8-.082.245-.082.5.082.736l6.842 11.618c.082.164.247.327.412.327l8.408 3.2h.082l2.473.9 6.183 2.373c.165.082.33.164.412.4.33.655.33 1.3-.082 1.964h-13.437c-.824 0-1.65-.245-2.308-.736l-23-16.936s.33-.164.742-.736.577-1.3.577-2.045l-.742-6.873 1-1.555c.247-.327.742-.4 1.072-.164.247.245 1.237 1.064 3.627 4.9 1.237 1.8 3.215 3.1 5.44 3.436.412.082.907-.245 1-.655a.9.9 0 0 0-.659-.982c-1.73-.327-3.38-1.3-4.37-2.782-2.885-4.418-3.7-5.073-4.04-5.318-1.072-.736-2.555-.5-3.38.573l-5.03 7.936c-.33.5-.412 1.064-.33 1.636-.495.164-1 .4-1.237.9l-1.32 2.045c-.742 1.064-.412 2.536.66 3.273.742.573 2.308 1.555 4.616 3.027.165.082.33.164.412.164.247 0 .495-.164.66-.4.247-.4.165-.9-.247-1.145l-4.534-3.027c-.33-.245-.412-.655-.165-1.064l1.237-1.882c.247-.327.742-.4 1.072-.164h0l25.885 19.145c1 .736 2.143 1.064 3.297 1.064h11.376c-1.73.818-4.122 1.555-6.183 1.555h0-5.276a7.45 7.45 0 0 1-3.957-1.145L236.266 20.2c-.412-.245-.907-.164-1.154.245s-.165.9.247 1.145l19.867 12.682h-21.268c-.495 0-.824.327-.824.818s.33.818.824.818h31.655c3.38 0 8.243-1.8 9.48-3.518 1.072-1.473 1.154-2.864.412-4.173zm-18.218-7.364l-6.43-10.882a2.19 2.19 0 0 1 1.154-.573c.495-.082 1.4 0 2.226.9l.495.818H254c-.495 0-.824.327-.824.818s.33.818.824.818h1.73l.824 1.3h-.66c-.495 0-.824.327-.824.818s.33.818.824.818h1.65l1 1.555h-.66c-.495 0-.824.327-.824.818s.33.818.824.818h1.65l2.308 3.6-4.534-1.636zm-25.4-10.882l2.555-4 .495 4.745c0 .327-.082.655-.247.9s-.495.9-1.237.327c0 0-.412-.245-1.154-.818-.495-.4-.577-.818-.412-1.145zM8.48 27.47H5.698V35H.557V13.672H8.95c2.53 0 4.507.562 5.933 1.685s2.14 2.7 2.14 4.76c0 1.484-.3 2.715-.9 3.7s-1.54 1.768-2.82 2.373l4.453 8.6V35h-5.508L8.48 27.47zM5.698 23.5H8.95c.977 0 1.7-.256 2.205-.77s.74-1.228.74-2.146-.25-1.638-.747-2.16-1.23-.784-2.197-.784H5.698v5.86zm32.5 1.274c0 2.08-.386 3.92-1.157 5.522s-1.868 2.834-3.3 3.7-3.04 1.296-4.856 1.296-3.428-.417-4.834-1.252-2.502-2.03-3.3-3.582-1.2-3.335-1.238-5.347v-1.2c0-2.1.383-3.933 1.15-5.53s1.865-2.83 3.296-3.7 3.06-1.304 4.885-1.304c1.807 0 3.418.43 4.834 1.3s2.517 2.083 3.303 3.67 1.184 3.406 1.194 5.457v.98zm-5.23-.894c0-2.12-.354-3.728-1.062-4.827s-1.72-1.648-3.04-1.648c-2.578 0-3.94 1.934-4.087 5.8l-.015 1.567c0 2.1.347 3.696 1.04 4.82s1.724 1.685 3.1 1.685c1.3 0 2.3-.552 3.003-1.655s1.06-2.7 1.07-4.76v-.98zm25.137 3.896c-.068 1.484-.47 2.795-1.2 3.933s-1.76 2.02-3.083 2.644-2.834.938-4.534.938c-2.803 0-5-.913-6.62-2.74s-2.428-4.4-2.428-7.73v-1.055c0-2.1.364-3.918 1.1-5.486s1.775-2.778 3.142-3.633 2.95-1.282 4.746-1.282c2.588 0 4.668.68 6.24 2.043s2.466 3.24 2.68 5.632H53.01c-.04-1.3-.366-2.23-.98-2.798s-1.553-.85-2.812-.85c-1.28 0-2.217.48-2.812 1.436s-.908 2.485-.937 4.585v1.5c0 2.275.286 3.9.857 4.878s1.555 1.465 2.952 1.465c1.182 0 2.085-.278 2.7-.835s.957-1.44.996-2.65h5.112zm9.683-.718l-2.1 2.314V35h-5.142V13.672h5.142v9.404l1.787-2.7 4.6-6.694h6.357l-7.207 9.434L78.413 35H72.32l-4.54-7.94zm25.166-1.1h-8.086v5.083h9.55V35h-14.7V13.672H94.44v3.97h-9.58v4.497h8.086v3.823zm20.596-8.32h-6.4V35h-5.142V17.642h-6.284v-3.97h17.827v3.97zm12.935 11.7c0-.752-.266-1.338-.798-1.758s-1.467-.854-2.805-1.304-2.432-.884-3.28-1.304c-2.764-1.357-4.146-3.223-4.146-5.596 0-1.182.344-2.224 1.033-3.127s1.663-1.606 2.922-2.1 2.676-.754 4.248-.754c1.533 0 2.908.273 4.124.82s2.16 1.326 2.834 2.336 1 2.166 1 3.464H126.5c0-.87-.266-1.543-.798-2.02s-1.252-.718-2.16-.718c-.918 0-1.643.203-2.175.608s-.798.92-.798 1.545c0 .547.293 1.042.88 1.487s1.616.903 3.1 1.377 2.686.984 3.633 1.53c2.305 1.328 3.457 3.16 3.457 5.493 0 1.865-.703 3.33-2.1 4.395s-3.335 1.597-5.786 1.597c-1.73 0-3.293-.3-4.695-.93s-2.456-1.47-3.164-2.55-1.062-2.322-1.062-3.728h5.156c0 1.143.295 1.985.886 2.527s1.55.813 2.878.813c.85 0 1.52-.183 2.014-.55s.74-.88.74-1.545zM152.08 35h-5.112v-8.906h-7.573V35h-5.142V13.672h5.142v8.467h7.573v-8.467h5.112V35zm21.313-10.225c0 2.08-.386 3.92-1.157 5.522s-1.868 2.834-3.3 3.7-3.04 1.296-4.856 1.296-3.428-.417-4.834-1.252-2.502-2.03-3.3-3.582-1.2-3.335-1.238-5.347v-1.2c0-2.1.383-3.933 1.15-5.53s1.865-2.83 3.296-3.7 3.06-1.304 4.885-1.304c1.807 0 3.418.43 4.834 1.3s2.517 2.083 3.303 3.67 1.184 3.406 1.194 5.457v.98zm-5.23-.894c0-2.12-.354-3.728-1.062-4.827s-1.72-1.648-3.04-1.648c-2.578 0-3.94 1.934-4.087 5.8l-.015 1.567c0 2.1.347 3.696 1.04 4.82s1.724 1.685 3.1 1.685c1.3 0 2.3-.552 3.003-1.655s1.06-2.7 1.07-4.76v-.98zm21.108 2.08h-8.086v5.083h9.55V35h-14.692V13.672h14.722v3.97h-9.58v4.497h8.086v3.823zm14.56 3.37c0-.752-.266-1.338-.798-1.758s-1.467-.854-2.805-1.304-2.432-.884-3.28-1.304c-2.764-1.357-4.146-3.223-4.146-5.596 0-1.182.344-2.224 1.033-3.127s1.663-1.606 2.922-2.1 2.676-.754 4.248-.754c1.533 0 2.908.273 4.124.82s2.16 1.326 2.834 2.336 1 2.166 1 3.464h-5.127c0-.87-.266-1.543-.798-2.02s-1.252-.718-2.16-.718c-.918 0-1.643.203-2.175.608s-.798.92-.798 1.545c0 .547.293 1.042.88 1.487s1.616.903 3.1 1.377 2.686.984 3.633 1.53c2.305 1.328 3.457 3.16 3.457 5.493 0 1.865-.703 3.33-2.1 4.395s-3.335 1.597-5.786 1.597c-1.73 0-3.293-.3-4.695-.93s-2.456-1.47-3.164-2.55-1.062-2.322-1.062-3.728h5.156c0 1.143.295 1.985.886 2.527s1.55.813 2.878.813c.85 0 1.52-.183 2.014-.55s.74-.88.74-1.545z"/></svg>